<?xml version='1.0' encoding='utf-8'?>
<mxfile><diagram name="Flowchart"><mxGraphModel><root><mxCell id="0" /><mxCell id="1" parent="0" /><mxCell id="2" value="示例开始" style="rounded=1;whiteSpace=wrap;html=1;" vertex="1" parent="1"><mxGeometry x="100" y="100" width="120" height="60" as="geometry" /></mxCell></root></mxGraphModel></diagram></mxfile>